<?xml version="1.0" standalone="no"?><!DOCTYPE svg PUBLIC "-//W3C//DTD SVG 1.1//EN" "http://www.w3.org/Graphics/SVG/1.1/DTD/svg11.dtd"><svg t="1572146449278" class="icon" viewBox="0 0 1024 1024" version="1.1" xmlns="http://www.w3.org/2000/svg" p-id="5115" xmlns:xlink="http://www.w3.org/1999/xlink" width="181" height="181"><defs><style type="text/css"></style></defs><path d="M808.131418 216.006013a418.754171 418.754171 0 0 0-249.420116-120.075199v369.656996h372.297788a419.077533 419.077533 0 0 0-122.877672-249.527904zM1024.083537 512.098087a46.56417 46.56417 0 0 1-46.56417 46.56417H512.147132a46.56417 46.56417 0 0 1-46.564171-46.56417V46.56417c0-25.707302 20.856868-46.56417 46.564171-46.56417C794.873564 0 1024.083537 229.263867 1024.083537 512.098087z m-126.111295 162.974596a46.510277 46.510277 0 1 1 85.637115 36.324364c-110.266542 260.468328-410.670114 382.214232-670.976761 271.94769C52.164268 873.078194-69.527742 572.512942 40.684907 312.044614A511.990299 511.990299 0 0 1 307.351012 42.360461a46.671958 46.671958 0 1 1 37.240558 85.691007A419.077533 419.077533 0 0 0 128.208301 679.599755a418.754171 418.754171 0 0 0 769.763941-4.580966z" p-id="5116"></path></svg>