<?xml version="1.0" standalone="no"?><!DOCTYPE svg PUBLIC "-//W3C//DTD SVG 1.1//EN" "http://www.w3.org/Graphics/SVG/1.1/DTD/svg11.dtd"><svg t="1568788087176" class="icon" viewBox="0 0 1024 1024" version="1.1" xmlns="http://www.w3.org/2000/svg" p-id="1505" xmlns:xlink="http://www.w3.org/1999/xlink" width="181" height="181"><defs><style type="text/css"></style></defs><path d="M798.72 532.48c0-21.7088 18.35008-39.3216 40.96-39.3216s40.96 17.6128 40.96 39.3216v334.2336c0 86.8352-73.3184 157.2864-163.84 157.2864H266.24c-90.5216 0-163.84-70.4512-163.84-157.2864V198.2464C102.4 111.4112 175.7184 40.96 266.24 40.96h163.84c22.60992 0 40.96 17.6128 40.96 39.3216s-18.35008 39.3216-40.96 39.3216H266.24c-45.2608 0-81.92 35.2256-81.92 78.6432v668.4672c0 43.4176 36.6592 78.6432 81.92 78.6432h450.56c45.2608 0 81.92-35.2256 81.92-78.6432V532.48z m-79.17568-145.85856l129.47456-134.88128a38.2976 38.2976 0 0 1 38.25664-11.18208 40.1408 40.1408 0 0 1 28.09856 29.24544c3.56352 14.336-0.53248 29.57312-10.73152 39.85408l-196.52608 204.71808-0.08192 0.08192a38.21568 38.21568 0 0 1-55.00928 0.6144L446.6688 310.35392a42.1888 42.1888 0 0 1-0.77824-57.344 38.21568 38.21568 0 0 1 55.00928-1.96608l140.00128 138.8544V75.93984c0-22.60992 17.6128-40.96 39.3216-40.96s39.3216 18.35008 39.3216 40.96v310.72256z" p-id="1506"></path><path d="M338.78016 502.29248l77.25056 71.68 77.25056-71.68a33.46432 33.46432 0 0 1 49.152 0c14.04928 7.12704 14.04928 35.79904 0 50.176l-42.10688 43.008c14.00832 0 21.05344 14.336 21.05344 28.672 0 21.504-14.04928 35.79904-35.14368 35.79904h-35.06176v43.008h35.06176c21.0944 0 35.14368 14.336 35.14368 35.84s-14.04928 35.88096-35.14368 35.88096h-35.06176v35.79904c0 21.504-14.09024 35.88096-35.14368 35.88096s-35.10272-14.336-35.10272-35.88096v-35.79904h-35.10272c-21.05344 0-35.10272-14.336-35.10272-35.88096 0-21.504 14.04928-35.79904 35.10272-35.79904H380.928v-43.008h-35.10272c-21.05344 0-35.10272-14.336-35.10272-35.84 0-14.336 7.00416-28.672 21.05344-28.672l-42.14784-43.008c-14.00832-14.336-14.00832-43.008 0-50.176a33.46432 33.46432 0 0 1 49.152 0z" p-id="1507"></path></svg>