<?xml version="1.0" standalone="no"?><!DOCTYPE svg PUBLIC "-//W3C//DTD SVG 1.1//EN" "http://www.w3.org/Graphics/SVG/1.1/DTD/svg11.dtd"><svg t="1563881211542" class="icon" viewBox="0 0 1024 1024" version="1.1" xmlns="http://www.w3.org/2000/svg" p-id="1850" xmlns:xlink="http://www.w3.org/1999/xlink" width="181" height="181"><defs><style type="text/css"></style></defs><path d="M584.898287 75.121931c0-40.637536 32.875758-73.581856 72.225975-73.581855H950.062034c39.889499 0 72.225975 32.31908 72.225975 73.581855v144.43046c0 40.637536-32.875758 73.581856-72.225975 73.581856H657.124262c-39.889499 0-72.225975-32.31908-72.225975-73.581856V75.121931zM1.710968 804.105824c0-40.637536 32.875758-73.581856 72.225975-73.581855h292.937772c39.889499 0 72.225975 32.320103 72.225975 73.581855V948.536284c0 40.637536-32.875758 73.581856-72.225975 73.581856H73.936943c-39.889499 0-72.225975-32.320103-72.225975-73.581856V804.105824z m583.187319-292.492634c0-40.141232 32.875758-72.681346 72.225975-72.681346H950.062034c39.889499 0 72.225975 33.025161 72.225975 72.681346V949.436794c0 40.141232-32.875758 72.682369-72.225975 72.682369H657.124262c-39.889499 0-72.225975-33.025161-72.225975-72.682369V511.61319zM1.710968 74.222445c0-40.141232 32.875758-72.682369 72.225975-72.682369h292.937772c39.889499 0 72.225975 33.026184 72.225975 72.682369v437.823604c0 40.141232-32.875758 72.681346-72.225975 72.681346H73.936943c-39.889499 0-72.225975-33.025161-72.225975-72.681346V74.222445z" fill="" p-id="1851"></path></svg>