<?xml version="1.0" standalone="no"?><!DOCTYPE svg PUBLIC "-//W3C//DTD SVG 1.1//EN" "http://www.w3.org/Graphics/SVG/1.1/DTD/svg11.dtd"><svg t="1563881176667" class="icon" viewBox="0 0 1024 1024" version="1.1" xmlns="http://www.w3.org/2000/svg" p-id="1245" xmlns:xlink="http://www.w3.org/1999/xlink" width="181" height="181"><defs><style type="text/css"></style></defs><path d="M554.666667 384v85.333333h192c70.693333 0 128 57.306667 128 128v42.666667h21.333333c70.693333 0 128 57.306667 128 128v128c0 70.693333-57.306667 128-128 128h-128c-70.693333 0-128-57.306667-128-128v-128c0-70.693333 57.306667-128 128-128h21.333333v-42.666667a42.666667 42.666667 0 0 0-42.666666-42.666666H277.333333a42.666667 42.666667 0 0 0-42.666666 42.666666v42.666667h21.333333c70.693333 0 128 57.306667 128 128v128c0 70.693333-57.306667 128-128 128H128c-70.693333 0-128-57.306667-128-128v-128c0-70.693333 57.306667-128 128-128h21.333333v-42.666667c0-70.693333 57.306667-128 128-128h192V384h-21.333333c-70.693333 0-128-57.306667-128-128V128C320 57.306667 377.306667 0 448 0h128c70.693333 0 128 57.306667 128 128v128c0 70.693333-57.306667 128-128 128h-21.333333zM448 85.333333a42.666667 42.666667 0 0 0-42.666667 42.666667v128a42.666667 42.666667 0 0 0 42.666667 42.666667h128a42.666667 42.666667 0 0 0 42.666667-42.666667V128a42.666667 42.666667 0 0 0-42.666667-42.666667H448zM128 725.333333a42.666667 42.666667 0 0 0-42.666667 42.666667v128a42.666667 42.666667 0 0 0 42.666667 42.666667h128a42.666667 42.666667 0 0 0 42.666667-42.666667v-128a42.666667 42.666667 0 0 0-42.666667-42.666667H128z m640 0a42.666667 42.666667 0 0 0-42.666667 42.666667v128a42.666667 42.666667 0 0 0 42.666667 42.666667h128a42.666667 42.666667 0 0 0 42.666667-42.666667v-128a42.666667 42.666667 0 0 0-42.666667-42.666667h-128z" fill="#ffffff" fill-opacity=".45" p-id="1246"></path></svg>