<?xml version="1.0" standalone="no"?><!DOCTYPE svg PUBLIC "-//W3C//DTD SVG 1.1//EN" "http://www.w3.org/Graphics/SVG/1.1/DTD/svg11.dtd"><svg t="1563881197334" class="icon" viewBox="0 0 1024 1024" version="1.1" xmlns="http://www.w3.org/2000/svg" p-id="1549" xmlns:xlink="http://www.w3.org/1999/xlink" width="181" height="181"><defs><style type="text/css"></style></defs><path d="M469.69672704 494.46317966a59.84711111 59.84711111 0 1 0 84.63511893-84.6380726 59.84711111 59.84711111 0 1 0-84.63511893 84.6380726Z" p-id="1550"></path><path d="M721.57866667 452.15288889m-59.84711112 0a59.84711111 59.84711111 0 1 0 119.69422223 0 59.84711111 59.84711111 0 1 0-119.69422223 0Z" p-id="1551"></path><path d="M302.42133333 452.15288889m-59.84711111 0a59.84711111 59.84711111 0 1 0 119.69422223 0 59.84711111 59.84711111 0 1 0-119.69422223 0Z" p-id="1552"></path><path d="M1020.928 190.57777778c0-70.54222222-57.00266667-127.65866667-127.31733333-127.65866667h-763.44888889c-70.31466667 0-127.20355555 57.11644445-127.20355556 127.65866667v511.20355555c0 70.42844445 49.49333333 109.568 119.808 109.568h239.50222223L512 961.08088889l149.73155555-149.73155556h239.50222223c70.31466667 0 119.808-49.26577778 119.808-119.808l-0.11377778-500.96355555z m-59.84711111 450.44622222c0 63.60177778-27.76177778 110.47822222-89.77066667 110.47822222H631.808L512 871.31022222 392.192 751.50222222H152.68977778c-62.00888889-0.11377778-89.77066667-46.99022222-89.77066667-110.47822222V212.65066667c0-63.60177778 27.76177778-89.77066667 89.77066667-89.77066667h718.50666667c62.00888889 0 89.77066667 26.28266667 89.77066666 89.77066667v428.37333333z" p-id="1553"></path></svg>