<?xml version="1.0" standalone="no"?><!DOCTYPE svg PUBLIC "-//W3C//DTD SVG 1.1//EN" "http://www.w3.org/Graphics/SVG/1.1/DTD/svg11.dtd"><svg t="1563881190407" class="icon" viewBox="0 0 1024 1024" version="1.1" xmlns="http://www.w3.org/2000/svg" p-id="1417" xmlns:xlink="http://www.w3.org/1999/xlink" width="181" height="181"><defs><style type="text/css"></style></defs><path d="M912.49777778 2.27555555l-800.99555556 0C91.40451555 2.27555555 75.09333333 18.58673778 75.09333333 38.68444445l0 946.6311111C75.09333333 1005.41326222 91.40451555 1021.72444445 111.50222222 1021.72444445l800.99555556 0c20.09770667 0 36.40888889-16.31118222 36.40888889-36.4088889l0-946.6311111C948.90666667 18.58673778 932.59548445 2.27555555 912.49777778 2.27555555zM876.08888889 948.90666667L147.91111111 948.90666667 147.91111111 75.09333333l728.17777778 0L876.08888889 948.90666667z" p-id="1418"></path><path d="M332.14008889 293.54666667c20.02488889 0 36.40888889-16.31118222 36.40888889-36.40888889S352.23779555 220.72888889 332.14008889 220.72888889L331.41191111 220.72888889C311.31420445 220.72888889 295.36711111 237.04007111 295.36711111 257.13777778S312.04238222 293.54666667 332.14008889 293.54666667z" p-id="1419"></path><path d="M332.14008889 512c20.02488889 0 36.40888889-16.31118222 36.40888889-36.40888889S352.23779555 439.18222222 332.14008889 439.18222222L331.41191111 439.18222222C311.31420445 439.18222222 295.36711111 455.49340445 295.36711111 475.59111111S312.04238222 512 332.14008889 512z" p-id="1420"></path><path d="M332.14008889 730.45333333c20.02488889 0 36.40888889-16.31118222 36.40888889-36.40888888S352.23779555 657.63555555 332.14008889 657.63555555L331.41191111 657.63555555c-20.02488889 0-35.97198222 16.31118222-35.97198222 36.4088889S312.04238222 730.45333333 332.14008889 730.45333333z" p-id="1421"></path><path d="M475.59111111 293.54666667l218.45333334 0C714.14215111 293.54666667 730.45333333 277.23548445 730.45333333 257.13777778S714.14215111 220.72888889 694.04444445 220.72888889l-218.45333334 0C455.49340445 220.72888889 439.18222222 237.04007111 439.18222222 257.13777778S455.49340445 293.54666667 475.59111111 293.54666667z" p-id="1422"></path><path d="M475.59111111 512l218.45333334 0C714.14215111 512 730.45333333 495.68881778 730.45333333 475.59111111S714.14215111 439.18222222 694.04444445 439.18222222l-218.45333334 0C455.49340445 439.18222222 439.18222222 455.49340445 439.18222222 475.59111111S455.49340445 512 475.59111111 512z" p-id="1423"></path><path d="M475.59111111 730.45333333l218.45333334 0c20.09770667 0 36.40888889-16.31118222 36.40888888-36.40888888S714.14215111 657.63555555 694.04444445 657.63555555l-218.45333334 0C455.49340445 657.63555555 439.18222222 673.94673778 439.18222222 694.04444445S455.49340445 730.45333333 475.59111111 730.45333333z" p-id="1424"></path></svg>