<?xml version="1.0" standalone="no"?><!DOCTYPE svg PUBLIC "-//W3C//DTD SVG 1.1//EN" "http://www.w3.org/Graphics/SVG/1.1/DTD/svg11.dtd"><svg t="1570965517013" class="icon" viewBox="0 0 1024 1024" version="1.1" xmlns="http://www.w3.org/2000/svg" p-id="7796" xmlns:xlink="http://www.w3.org/1999/xlink" width="181" height="181"><defs><style type="text/css"></style></defs><path d="M795.648 645.12c-8.192 0-15.36-3.072-21.504-9.216l-99.328-107.52c-7.168-8.192-10.24-19.456-7.168-29.696 3.072-10.24 11.264-18.432 22.528-20.48 2.048-1.024 4.096-1.024 7.168-1.024 8.192 0 16.384 3.072 22.528 10.24l77.824 83.968 174.08-174.08c6.144-5.12 13.312-8.192 21.504-8.192s15.36 3.072 21.504 8.192c6.144 6.144 9.216 14.336 9.216 23.552-1.024 8.192-5.12 16.384-11.264 21.504L816.128 635.904c-5.12 6.144-13.312 9.216-20.48 9.216z" fill="" p-id="7797"></path><path d="M408.576 962.56l-14.336-5.12-11.264-4.096L50.176 795.648C20.48 781.312 1.024 750.592 1.024 717.824V305.152c0-33.792 19.456-63.488 49.152-77.824L382.976 69.632c11.264-5.12 24.576-8.192 37.888-8.192 13.312 0 25.6 3.072 37.888 9.216l332.8 157.696c29.696 14.336 49.152 45.056 49.152 77.824v163.84c0 16.384-13.312 29.696-29.696 29.696s-29.696-13.312-29.696-29.696V333.824l-327.68 154.624-13.312 4.096v402.432l325.632-153.6c8.192-4.096 13.312-13.312 13.312-23.552v-16.384c0-16.384 13.312-29.696 29.696-29.696s29.696 13.312 29.696 29.696v16.384c0 32.768-19.456 63.488-49.152 77.824L457.728 953.344c-11.264 6.144-24.576 9.216-36.864 9.216h-12.288zM59.392 717.824c0 10.24 6.144 19.456 15.36 23.552l305.152 143.36V490.496l-131.072-61.44v61.44c0 16.384-13.312 29.696-29.696 29.696-16.384 0-29.696-13.312-29.696-29.696V399.36L60.416 337.92v379.904z m214.016-347.136l132.096 63.488c3.072 1.024 7.168 2.048 11.264 2.048 4.096 0 7.168-1.024 11.264-2.048l328.704-155.648L627.712 215.04 273.408 370.688z m145.408-246.784c-4.096 0-7.168 1.024-11.264 2.048l-327.68 155.648 122.88 58.368L552.96 185.344l-122.88-59.392c-4.096-1.024-8.192-2.048-11.264-2.048z" fill="" p-id="7798"></path></svg>