<?xml version="1.0" standalone="no"?><!DOCTYPE svg PUBLIC "-//W3C//DTD SVG 1.1//EN" "http://www.w3.org/Graphics/SVG/1.1/DTD/svg11.dtd"><svg t="1564820806858" class="icon" viewBox="0 0 1024 1024" version="1.1" xmlns="http://www.w3.org/2000/svg" p-id="4348" xmlns:xlink="http://www.w3.org/1999/xlink" width="181" height="181"><defs><style type="text/css"></style></defs><path d="M1000.68 547.784c9.88 6.006 15.89 16.306 16.32 28.322v271.662c0 11.589-6.44 22.317-16.32 27.899l-235.32 136.045c-5.155 3.004-10.735 4.287-16.32 4.287-5.58 0-11.165-1.283-16.319-4.287l-220.72-127.464-220.722 127.464c-5.155 3.004-10.74 4.287-16.32 4.287-5.584 0-11.164-1.283-16.319-4.287L23.32 875.667C13.01 870.085 7 859.357 7 847.768V576.106c0-11.585 6.44-22.316 16.32-27.893l220.72-127.465V176.124c0-11.588 6.44-22.316 16.32-27.893L496.11 12.186c9.88-5.582 22.33-5.582 32.21 0l235.32 135.616c10.31 5.577 16.32 16.31 16.32 27.893v244.628l220.72 127.46zM778.24 929.308l173.917-99.993V625.033L778.24 729.323v199.985zM545.494 628.036h0.431v200.85l168.331 97.42V729.323L545.494 628.036zM304.589 929.308l173.916-99.993V625.033L304.59 729.323v199.985zM71.843 628.036h0.431v200.85l168.331 97.42V729.323L71.843 628.036zM512 77.421L344.098 174.41l165.327 99.14 167.902-100.858L512 77.42z m203.116 344.615V225.048L541.2 329.34v193.12l173.917-100.423z m-237.9-92.697L308.883 228.057v193.55l168.333 97.42V329.339zM272.385 673.097l161.891-96.99-165.326-95.701-161.897 93.558 165.332 99.133z m473.65 0l168.332-100.853-159.311-91.838-168.338 96.992 159.318 95.699z" p-id="4349"></path></svg>