<?xml version="1.0" standalone="no"?><!DOCTYPE svg PUBLIC "-//W3C//DTD SVG 1.1//EN" "http://www.w3.org/Graphics/SVG/1.1/DTD/svg11.dtd"><svg t="1602504736615" class="icon" viewBox="0 0 1024 1024" version="1.1" xmlns="http://www.w3.org/2000/svg" p-id="6012" xmlns:xlink="http://www.w3.org/1999/xlink" width="128" height="128"><defs><style type="text/css"></style></defs><path d="M938.666667 720.810667v172.970666C841.984 980.565333 699.733333 1024 512 1024s-329.984-43.434667-426.666667-130.218667V720.810667c96.682667 86.784 238.933333 130.218667 426.666667 130.218666s329.984-43.434667 426.666667-130.218666z m0-216.234667V677.546667C841.984 764.330667 699.733333 807.765333 512 807.765333S182.016 764.330667 85.333333 677.546667V504.576C182.016 591.36 324.266667 634.88 512 634.88s329.984-43.434667 426.666667-130.218667z m0-230.485333v172.970666C841.984 533.845333 699.733333 577.194667 512 577.194667S182.016 533.845333 85.333333 447.146667V274.090667c96.682667 86.784 238.933333 130.133333 426.666667 130.133333s329.984-43.349333 426.666667-130.133333zM512 0c235.605333 0 426.666667 80.64 426.666667 180.224 0 99.498667-191.061333 180.224-426.666667 180.224s-426.666667-80.725333-426.666667-180.224C85.333333 80.64 276.394667 0 512 0z" p-id="6013" fill="#BFCBD9"></path></svg>