<?xml version="1.0" standalone="no"?><!DOCTYPE svg PUBLIC "-//W3C//DTD SVG 1.1//EN" "http://www.w3.org/Graphics/SVG/1.1/DTD/svg11.dtd"><svg t="1563881207231" class="icon" viewBox="0 0 1024 1024" version="1.1" xmlns="http://www.w3.org/2000/svg" p-id="1724" xmlns:xlink="http://www.w3.org/1999/xlink" width="181" height="181"><defs><style type="text/css"></style></defs><path d="M902.981818 1000.727273H121.018182c-37.236364 0-60.509091-27.927273-60.509091-60.509091v-134.981818c0-41.890909 23.272727-74.472727 65.163636-88.436364L353.745455 605.090909c-37.236364-32.581818-65.163636-83.781818-74.472728-116.363636-13.963636-41.890909-23.272727-88.436364-23.272727-130.327273v-139.636364c0-51.2 32.581818-102.4 88.436364-144.290909C395.636364 37.236364 460.8 13.963636 516.654545 13.963636s121.018182 23.272727 172.218182 60.509091c55.854545 41.890909 88.436364 93.090909 88.436364 144.290909v139.636364c0 18.618182-4.654545 162.909091-97.745455 246.690909l228.072728 107.054546c32.581818 13.963636 65.163636 41.890909 65.163636 93.090909v134.981818c0 18.618182-4.654545 32.581818-18.618182 46.545454-18.618182 9.309091-37.236364 13.963636-51.2 13.963637zM130.327273 930.909091h763.345454v-125.672727c0-13.963636-4.654545-23.272727-18.618182-27.927273h-4.654545l-237.381818-111.709091c-23.272727-9.309091-37.236364-23.272727-37.236364-46.545455-4.654545-23.272727 4.654545-46.545455 27.927273-60.50909 60.509091-51.2 79.127273-153.6 79.127273-200.145455v-139.636364c0-27.927273-23.272727-60.509091-60.509091-88.436363-41.890909-27.927273-88.436364-46.545455-130.327273-46.545455-41.890909 0-93.090909 18.618182-130.327273 46.545455-37.236364 27.927273-60.509091 60.509091-60.509091 83.781818v139.636364c0 27.927273 9.309091 69.818182 23.272728 102.4 9.309091 27.927273 32.581818 69.818182 60.509091 93.090909 18.618182 18.618182 27.927273 41.890909 23.272727 60.509091 0 18.618182-13.963636 37.236364-32.581818 46.545454l-242.036364 116.363636c-13.963636 4.654545-23.272727 13.963636-23.272727 27.927273V930.909091z m535.272727-321.163636z" p-id="1725"></path></svg>